<svg width="150" height="32" viewBox="0 0 150 32" fill="none" xmlns="http://www.w3.org/2000/svg">
<path d="M9.01988 18.5653L6.94601 31.0085H-1.10939e-05L4.82953 1.91761H11.5483L9.70169 13.196H9.94317C10.6439 11.8513 11.6193 10.8002 12.8693 10.0426C14.1193 9.28504 15.5682 8.90625 17.2159 8.90625C18.7311 8.90625 20 9.24716 21.0227 9.92898C22.0454 10.6013 22.7699 11.553 23.196 12.7841C23.6221 14.0152 23.6979 15.4545 23.4233 17.1023L21.0937 31.0085H14.1477L16.25 18.4659C16.4394 17.2538 16.2831 16.3068 15.7812 15.625C15.2793 14.9432 14.4744 14.6023 13.3665 14.6023C12.6373 14.6023 11.965 14.7633 11.3494 15.0852C10.7434 15.3977 10.2367 15.8475 9.82954 16.4347C9.42234 17.0218 9.15245 17.732 9.01988 18.5653ZM25.3871 31.0085L29.0234 9.19034H35.9694L32.3331 31.0085H25.3871ZM32.9865 6.63352C32.0016 6.63352 31.2015 6.30682 30.5859 5.65341C29.9704 5 29.7289 4.21875 29.8615 3.30966C29.9941 2.3911 30.4581 1.60985 31.2535 0.965907C32.049 0.321969 32.9344 -4.76837e-07 33.9098 -4.76837e-07C34.8946 -4.76837e-07 35.6854 0.321969 36.2819 0.965907C36.888 1.60985 37.1248 2.3911 36.9922 3.30966C36.8785 4.21875 36.424 5 35.6285 5.65341C34.8426 6.30682 33.9619 6.63352 32.9865 6.63352ZM36.7543 31.0085L40.3906 9.19034H47.1378L46.4702 13.1676H46.6974C47.3319 11.7282 48.1605 10.6581 49.1832 9.95738C50.206 9.24716 51.3139 8.89204 52.5071 8.89204C52.8291 8.89204 53.151 8.91572 53.473 8.96307C53.8044 9.00095 54.1169 9.05776 54.4105 9.13352L53.3878 15.1847C53.0658 15.0616 52.6444 14.9716 52.1236 14.9148C51.6027 14.8485 51.1293 14.8153 50.7031 14.8153C49.8793 14.8153 49.1122 15 48.402 15.3693C47.7012 15.7292 47.1046 16.2358 46.6122 16.8892C46.1293 17.5331 45.812 18.2907 45.6605 19.1619L43.7003 31.0085H36.7543ZM62.5994 31.4205C60.3172 31.4205 58.4233 30.9706 56.9176 30.071C55.4214 29.1619 54.3703 27.8693 53.7642 26.1932C53.1581 24.5076 53.0492 22.5047 53.4375 20.1847C53.8163 17.9309 54.5881 15.9612 55.7528 14.2756C56.9271 12.5805 58.4043 11.2642 60.1846 10.3267C61.965 9.37973 63.9489 8.90625 66.1364 8.90625C67.6894 8.90625 69.0672 9.14773 70.2699 9.63068C71.4725 10.1136 72.4668 10.8333 73.2528 11.7898C74.0388 12.7367 74.5739 13.9015 74.8579 15.2841C75.142 16.6667 75.1326 18.2528 74.8295 20.0426L74.5596 21.7756H55.6108L56.25 17.7415H68.75C68.8636 17.0028 68.8021 16.3447 68.5653 15.767C68.3286 15.1894 67.9451 14.7396 67.4148 14.4176C66.8939 14.0862 66.2547 13.9205 65.4971 13.9205C64.7301 13.9205 64.0104 14.1004 63.3381 14.4602C62.6752 14.8106 62.1117 15.2841 61.6477 15.8807C61.1837 16.4773 60.8807 17.1496 60.7386 17.8977L59.9858 22.0312C59.8343 22.9498 59.8769 23.7358 60.1136 24.3892C60.3504 25.0426 60.7576 25.5445 61.3352 25.8949C61.9129 26.2358 62.6562 26.4062 63.5653 26.4062C64.1714 26.4062 64.7396 26.3258 65.2699 26.1648C65.8002 25.9943 66.2737 25.7434 66.6903 25.4119C67.1165 25.071 67.4621 24.6591 67.7273 24.1761L74.0625 24.3608C73.5511 25.7907 72.7604 27.036 71.6903 28.0966C70.6203 29.1477 69.3134 29.9669 67.7699 30.554C66.2358 31.1316 64.5123 31.4205 62.5994 31.4205ZM84.4993 31.321C82.8894 31.321 81.4927 30.9044 80.3089 30.071C79.1252 29.2377 78.2777 27.9877 77.7663 26.321C77.2644 24.6544 77.2171 22.5852 77.6243 20.1136C78.0504 17.5473 78.808 15.4356 79.897 13.7784C80.986 12.1212 82.255 10.8949 83.7038 10.0994C85.1622 9.30398 86.6489 8.90625 88.1641 8.90625C89.3099 8.90625 90.2569 9.10511 91.005 9.50284C91.7625 9.8911 92.3544 10.393 92.7805 11.0085C93.2067 11.6241 93.5002 12.2633 93.6612 12.9261H93.8175L95.6498 1.91761H102.596L97.7663 31.0085H90.8913L91.4737 27.4716H91.2606C90.8534 28.1439 90.3326 28.7737 89.6981 29.3608C89.0637 29.9479 88.3108 30.4214 87.4396 30.7812C86.5779 31.1411 85.5978 31.321 84.4993 31.321ZM87.7805 25.9091C88.6233 25.9091 89.3856 25.6723 90.0675 25.1989C90.7493 24.7159 91.3222 24.0388 91.7862 23.1676C92.2597 22.2964 92.5911 21.2737 92.7805 20.0994C92.9794 18.9062 92.9889 17.8788 92.8089 17.017C92.629 16.1553 92.2739 15.4924 91.7436 15.0284C91.2228 14.5644 90.5362 14.3324 89.6839 14.3324C88.8317 14.3324 88.0694 14.5691 87.397 15.0426C86.7247 15.5161 86.1659 16.1837 85.7209 17.0455C85.2758 17.9072 84.9538 18.9252 84.755 20.0994C84.5656 21.2737 84.5466 22.2964 84.6981 23.1676C84.8591 24.0388 85.1953 24.7159 85.7067 25.1989C86.2275 25.6723 86.9188 25.9091 87.7805 25.9091ZM106.303 31.4205C105.271 31.4205 104.428 31.0606 103.775 30.3409C103.121 29.6212 102.837 28.75 102.923 27.7273C103.017 26.7235 103.462 25.8665 104.258 25.1562C105.053 24.446 105.962 24.0909 106.985 24.0909C107.96 24.0909 108.78 24.446 109.442 25.1562C110.115 25.8665 110.404 26.7235 110.309 27.7273C110.252 28.4091 110.02 29.0294 109.613 29.5881C109.215 30.1468 108.723 30.5919 108.136 30.9233C107.549 31.2547 106.938 31.4205 106.303 31.4205ZM120.465 31.3778C119.083 31.3778 117.889 31.1458 116.886 30.6818C115.891 30.2083 115.162 29.4934 114.698 28.5369C114.244 27.5805 114.135 26.3873 114.371 24.9574C114.58 23.7453 114.963 22.7273 115.522 21.9034C116.09 21.0701 116.786 20.393 117.61 19.8722C118.443 19.3513 119.371 18.9536 120.394 18.679C121.417 18.4044 122.487 18.2197 123.604 18.125C124.854 18.0114 125.868 17.8883 126.644 17.7557C127.43 17.6231 128.017 17.4384 128.406 17.2017C128.794 16.9555 129.031 16.6146 129.116 16.179V16.108C129.229 15.3788 129.073 14.8153 128.647 14.4176C128.221 14.0199 127.582 13.821 126.729 13.821C125.82 13.821 125.044 14.0199 124.4 14.4176C123.756 14.8153 123.306 15.3646 123.05 16.0653L116.687 15.8381C117.085 14.5123 117.766 13.3286 118.732 12.2869C119.698 11.2358 120.924 10.4119 122.411 9.81534C123.907 9.20928 125.636 8.90625 127.596 8.90625C128.978 8.90625 130.228 9.07197 131.346 9.40341C132.463 9.72538 133.406 10.1989 134.173 10.8239C134.949 11.4394 135.503 12.197 135.835 13.0966C136.166 13.9962 136.237 15.0237 136.048 16.179L133.562 31.0085H127.028L127.539 27.9687H127.369C126.857 28.7074 126.256 29.3324 125.565 29.8437C124.883 30.3551 124.116 30.7386 123.263 30.9943C122.411 31.25 121.478 31.3778 120.465 31.3778ZM123.391 26.8324C124.12 26.8324 124.812 26.6809 125.465 26.3778C126.119 26.0748 126.668 25.6581 127.113 25.1278C127.567 24.5881 127.856 23.9631 127.979 23.2528L128.306 21.179C128.107 21.2831 127.856 21.3778 127.553 21.4631C127.25 21.5483 126.928 21.6288 126.587 21.7045C126.246 21.7708 125.896 21.8371 125.536 21.9034C125.186 21.9602 124.85 22.0123 124.528 22.0597C123.846 22.1638 123.254 22.3248 122.752 22.5426C122.25 22.7604 121.848 23.0445 121.545 23.3949C121.251 23.7358 121.071 24.143 121.005 24.6165C120.891 25.3267 121.057 25.8759 121.502 26.2642C121.947 26.643 122.577 26.8324 123.391 26.8324ZM137.809 31.0085L141.445 9.19034H148.391L144.755 31.0085H137.809ZM145.408 6.63352C144.424 6.63352 143.623 6.30682 143.008 5.65341C142.392 5 142.151 4.21875 142.283 3.30966C142.416 2.3911 142.88 1.60985 143.675 0.965907C144.471 0.321969 145.356 -4.76837e-07 146.332 -4.76837e-07C147.317 -4.76837e-07 148.107 0.321969 148.704 0.965907C149.31 1.60985 149.547 2.3911 149.414 3.30966C149.3 4.21875 148.846 5 148.05 5.65341C147.264 6.30682 146.384 6.63352 145.408 6.63352Z" fill="black"/>
</svg>
